<svg xmlns="http://www.w3.org/2000/svg" width="12" height="18" viewBox="0 0 12 18" fill="none">
  <path d="M0.000291618 8.9127C7.96966e-05 6.42516 -0.000294411 0.966282 0.000405204 0C2.14658 -1.36513e-05 2.59146 2.29623 2.59146 2.29623V7.77947C2.59146 9.15902 2.49125 10.7581 3.56407 11.6254C4.48509 12.37 5.70072 12.37 5.70072 12.37V15.0366C2.21301 14.6004 0.84895 12.6419 0.322658 11.3401C0.0132749 10.5748 0.000361943 9.73816 0.000291618 8.9127Z" fill="#F8951E"/>
  <path d="M6.15153 14.9624C7.04001 14.9624 7.91682 14.7598 8.71537 14.3701C9.51393 13.9804 10.2132 13.4138 10.7602 12.7132C11.3072 12.0127 11.6875 11.1966 11.8722 10.3271C12.0568 9.4575 12.0411 8.55726 11.8261 7.69469C11.6111 6.83213 11.2025 6.02992 10.6313 5.34896C10.0602 4.668 9.34146 4.12621 8.52976 3.76471C7.71805 3.4032 6.8347 3.2315 5.94676 3.26262C5.05882 3.29375 4.18964 3.52689 3.40521 3.94434V7.40706C3.80546 7.19406 4.3008 6.18801 6.04705 6.1268C6.50011 6.11091 6.95083 6.19853 7.36499 6.38298C7.77915 6.56743 8.14587 6.84388 8.4373 7.19132C8.72872 7.53877 8.9372 7.94809 9.0469 8.38821C9.1566 8.82832 9.16464 9.28766 9.07041 9.73134C8.97618 10.175 8.78215 10.5914 8.50306 10.9488C8.22397 11.3063 7.88432 11.7266 7.47686 11.9254C7.06941 12.1243 6.60487 12.3699 6.15153 12.3699V14.9624Z" fill="#1F2228"/>
  <path d="M0.148313 17.9999C0.148313 17.9999 0.148265 12.2223 0.14845 11.926C1.48096 14.3704 2.81339 14.3704 2.81339 14.3704V15.9259C2.66533 17.7036 0.148313 17.9999 0.148313 17.9999Z" fill="#1F2228"/>
</svg>