<svg xmlns="http://www.w3.org/2000/svg" width="29" height="29" viewBox="0 0 29 29" fill="none">
  <path d="M11.0683 13.1346C10.9475 13.1225 10.8025 13.1225 10.6696 13.1346C7.79375 13.0379 5.51 10.6817 5.51 7.78166C5.51 4.82124 7.9025 2.41666 10.875 2.41666C13.8354 2.41666 16.24 4.82124 16.24 7.78166C16.2279 10.6817 13.9442 13.0379 11.0683 13.1346Z" stroke="#F8951E" stroke-width="1.5" stroke-linecap="round" stroke-linejoin="round"/>
  <path d="M19.8288 4.83334C22.1729 4.83334 24.0579 6.73043 24.0579 9.06251C24.0579 11.3463 22.2454 13.2071 19.9858 13.2917C19.8892 13.2796 19.7804 13.2796 19.6717 13.2917" stroke="#F8951E" stroke-width="1.5" stroke-linecap="round" stroke-linejoin="round"/>
  <path d="M5.02667 17.5933C2.1025 19.5508 2.1025 22.7408 5.02667 24.6863C8.34958 26.9096 13.7992 26.9096 17.1221 24.6863C20.0463 22.7288 20.0463 19.5388 17.1221 17.5933C13.8113 15.3821 8.36167 15.3821 5.02667 17.5933Z" stroke="#F8951E" stroke-width="1.5" stroke-linecap="round" stroke-linejoin="round"/>
  <path d="M22.1608 24.1667C23.0308 23.9854 23.8525 23.635 24.5292 23.1154C26.4142 21.7017 26.4142 19.3696 24.5292 17.9558C23.8646 17.4483 23.055 17.11 22.1971 16.9167" stroke="#F8951E" stroke-width="1.5" stroke-linecap="round" stroke-linejoin="round"/>
</svg>