<svg xmlns="http://www.w3.org/2000/svg" width="29" height="29" viewBox="0 0 29 29" fill="none">
  <path d="M10.4785 17.3152C10.4785 18.874 11.6748 20.1306 13.161 20.1306H16.1939C17.4868 20.1306 18.5381 19.0311 18.5381 17.6777C18.5381 16.2036 17.8977 15.684 16.9431 15.3456L12.0735 13.654C11.1189 13.3156 10.4785 12.7961 10.4785 11.3219C10.4785 9.96856 11.5298 8.86897 12.8227 8.86897H15.8556C17.3418 8.86897 18.5381 10.1256 18.5381 11.6844" stroke="#F8951E" stroke-width="1.5" stroke-linecap="round" stroke-linejoin="round"/>
  <path d="M14.5 7.25V21.75" stroke="#F8951E" stroke-width="1.5" stroke-linecap="round" stroke-linejoin="round"/>
  <path d="M14.5 26.5833C21.1734 26.5833 26.5833 21.1734 26.5833 14.5C26.5833 7.82656 21.1734 2.41667 14.5 2.41667C7.82656 2.41667 2.41667 7.82656 2.41667 14.5C2.41667 21.1734 7.82656 26.5833 14.5 26.5833Z" stroke="#F8951E" stroke-width="1.5" stroke-linecap="round" stroke-linejoin="round"/>
</svg>